<?xml version="1.0" encoding="UTF-8"?>
<!DOCTYPE svg PUBLIC "-//W3C//DTD SVG 1.1//EN" "http://www.w3.org/Graphics/SVG/1.1/DTD/svg11.dtd">
<svg xmlns="http://www.w3.org/2000/svg" version="1.1" width="200px" height="200px" style="shape-rendering:geometricPrecision; text-rendering:geometricPrecision; image-rendering:optimizeQuality; fill-rule:evenodd; clip-rule:evenodd" xmlns:xlink="http://www.w3.org/1999/xlink">
<g><path style="opacity:1" fill="#a578ff" d="M 199.5,26.5 C 199.5,38.5 199.5,50.5 199.5,62.5C 187.5,62.5 175.5,62.5 163.5,62.5C 163.5,50.5 163.5,38.5 163.5,26.5C 175.5,26.5 187.5,26.5 199.5,26.5 Z"/></g>
<g><path style="opacity:1" fill="#a578ff" d="M 138.5,28.5 C 144.5,28.5 150.5,28.5 156.5,28.5C 156.5,34.5 156.5,40.5 156.5,46.5C 150.5,46.5 144.5,46.5 138.5,46.5C 138.5,40.5 138.5,34.5 138.5,28.5 Z"/></g>
<g><path style="opacity:1" fill="#a678fe" d="M 133.5,51.5 C 141.833,51.5 150.167,51.5 158.5,51.5C 158.5,59.8333 158.5,68.1667 158.5,76.5C 150.167,76.5 141.833,76.5 133.5,76.5C 133.5,68.1667 133.5,59.8333 133.5,51.5 Z"/></g>
<g><path style="opacity:1" fill="#a578ff" d="M -0.5,173.5 C -0.5,172.167 -0.5,170.833 -0.5,169.5C 5.11444,162.878 10.7811,156.211 16.5,149.5C 15.3414,119.209 15.1747,88.8754 16,58.5C 16.9025,57.2986 18.0692,56.4652 19.5,56C 46.4979,55.5 73.4979,55.3334 100.5,55.5C 100.5,57.8333 100.5,60.1667 100.5,62.5C 76.831,62.3334 53.1643,62.5 29.5,63C 28.6919,63.3076 28.0253,63.8076 27.5,64.5C 26.1702,90.6964 26.1702,116.863 27.5,143C 69.4161,144.655 111.416,144.989 153.5,144C 154.701,143.097 155.535,141.931 156,140.5C 156.5,132.507 156.666,124.507 156.5,116.5C 160.167,116.5 163.833,116.5 167.5,116.5C 167.666,126.839 167.5,137.172 167,147.5C 166.626,148.416 166.126,149.25 165.5,150C 167.96,151.458 170.127,153.291 172,155.5C 175.976,160.977 180.142,166.31 184.5,171.5C 183.24,175.545 180.907,178.712 177.5,181C 120.167,181.667 62.8333,181.667 5.5,181C 2.87922,178.886 0.879222,176.386 -0.5,173.5 Z M 68.5,164.5 C 83.837,164.333 99.1703,164.5 114.5,165C 115.956,166.745 117.289,168.578 118.5,170.5C 100.509,171.666 82.5093,171.833 64.5,171C 66.0585,168.948 67.3918,166.781 68.5,164.5 Z M 77.5,174.5 C 87.1667,174.5 96.8333,174.5 106.5,174.5C 106.67,175.822 106.337,176.989 105.5,178C 96.1667,178.667 86.8333,178.667 77.5,178C 76.3157,176.855 76.3157,175.688 77.5,174.5 Z"/></g>
<g><path style="opacity:1" fill="#a678ff" d="M 106.5,58.5 C 112.5,58.5 118.5,58.5 124.5,58.5C 124.5,64.5 124.5,70.5 124.5,76.5C 118.824,76.6661 113.157,76.4994 107.5,76C 106.525,70.2588 106.192,64.4254 106.5,58.5 Z"/></g>
<g><path style="opacity:1" fill="#a578ff" d="M 113.5,79.5 C 119.176,79.3339 124.843,79.5006 130.5,80C 131.475,85.7412 131.808,91.5746 131.5,97.5C 125.5,97.5 119.5,97.5 113.5,97.5C 113.5,91.5 113.5,85.5 113.5,79.5 Z"/></g>
<g><path style="opacity:1" fill="#a678ff" d="M 152.5,79.5 C 162.5,79.5 172.5,79.5 182.5,79.5C 182.5,89.8333 182.5,100.167 182.5,110.5C 172.5,110.5 162.5,110.5 152.5,110.5C 152.5,100.167 152.5,89.8333 152.5,79.5 Z"/></g>
<g><path style="opacity:1" fill="#a578ff" d="M 89.5,86.5 C 94.1667,86.5 98.8333,86.5 103.5,86.5C 103.5,91.5 103.5,96.5 103.5,101.5C 98.5,101.5 93.5,101.5 88.5,101.5C 88.2213,96.4053 88.5546,91.4053 89.5,86.5 Z"/></g>
<g><path style="opacity:1" fill="#a578fe" d="M 128.5,98.5 C 134.5,98.5 140.5,98.5 146.5,98.5C 146.5,104.5 146.5,110.5 146.5,116.5C 140.5,116.5 134.5,116.5 128.5,116.5C 128.5,110.5 128.5,104.5 128.5,98.5 Z"/></g>
<g><path style="opacity:1" fill="#a678ff" d="M 78.5,104.5 C 84.1667,104.5 89.8333,104.5 95.5,104.5C 95.5,110.167 95.5,115.833 95.5,121.5C 89.8333,121.5 84.1667,121.5 78.5,121.5C 78.5,115.833 78.5,110.167 78.5,104.5 Z"/></g>
<g><path style="opacity:1" fill="#a578ff" d="M 102.5,104.5 C 107.5,104.5 112.5,104.5 117.5,104.5C 117.5,109.167 117.5,113.833 117.5,118.5C 112.5,118.5 107.5,118.5 102.5,118.5C 102.5,113.833 102.5,109.167 102.5,104.5 Z"/></g>
</svg>
