<?xml version="1.0" encoding="UTF-8"?>
<!DOCTYPE svg PUBLIC "-//W3C//DTD SVG 1.1//EN" "http://www.w3.org/Graphics/SVG/1.1/DTD/svg11.dtd">
<svg xmlns="http://www.w3.org/2000/svg" version="1.1" width="2317px" height="2317px" style="shape-rendering:geometricPrecision; text-rendering:geometricPrecision; image-rendering:optimizeQuality; fill-rule:evenodd; clip-rule:evenodd" xmlns:xlink="http://www.w3.org/1999/xlink">
<g><path style="opacity:0.967" fill="#a51712" d="M 1097.5,45.5 C 1101.06,45.3648 1103.89,46.6981 1106,49.5C 1106.5,56.8258 1106.67,64.1591 1106.5,71.5C 1111.13,70.4582 1114.3,72.1249 1116,76.5C 1116.5,86.4944 1116.67,96.4944 1116.5,106.5C 1120.17,106.327 1122.67,107.993 1124,111.5C 1124.67,132.5 1124.67,153.5 1124,174.5C 1122.89,176.815 1121.06,178.315 1118.5,179C 1105.83,179.667 1093.17,179.667 1080.5,179C 1077.77,178.602 1075.93,177.102 1075,174.5C 1074.33,153.167 1074.33,131.833 1075,110.5C 1076.54,107.479 1079.04,106.146 1082.5,106.5C 1082.33,96.4944 1082.5,86.4944 1083,76.5C 1084.7,72.1249 1087.87,70.4582 1092.5,71.5C 1092.33,64.1591 1092.5,56.8258 1093,49.5C 1094.25,47.8065 1095.75,46.4732 1097.5,45.5 Z"/></g>
<g><path style="opacity:0.965" fill="#a51712" d="M 1163.5,45.5 C 1168.06,45.361 1171.23,47.361 1173,51.5C 1173.5,58.1583 1173.67,64.825 1173.5,71.5C 1177.68,70.8456 1180.52,72.5123 1182,76.5C 1182.5,86.4944 1182.67,96.4944 1182.5,106.5C 1185.96,106.146 1188.46,107.479 1190,110.5C 1190.67,131.833 1190.67,153.167 1190,174.5C 1189.07,177.102 1187.23,178.602 1184.5,179C 1171.83,179.667 1159.17,179.667 1146.5,179C 1143.39,178.375 1141.55,176.542 1141,173.5C 1140.33,152.833 1140.33,132.167 1141,111.5C 1142.08,107.709 1144.58,106.043 1148.5,106.5C 1148.33,96.4944 1148.5,86.4944 1149,76.5C 1150.7,72.1249 1153.87,70.4582 1158.5,71.5C 1158.33,64.1591 1158.5,56.8258 1159,49.5C 1160.4,47.9297 1161.9,46.5964 1163.5,45.5 Z"/></g>
<g><path style="opacity:0.965" fill="#a51712" d="M 1229.5,45.5 C 1232.75,45.4152 1235.58,46.4152 1238,48.5C 1239.4,56.0804 1239.9,63.747 1239.5,71.5C 1243.35,70.8454 1246.19,72.1788 1248,75.5C 1248.5,85.828 1248.67,96.1613 1248.5,106.5C 1252.18,105.725 1254.68,107.059 1256,110.5C 1256.67,132.167 1256.67,153.833 1256,175.5C 1254.68,177.487 1252.85,178.654 1250.5,179C 1238.17,179.667 1225.83,179.667 1213.5,179C 1210.11,178.606 1207.94,176.773 1207,173.5C 1206.33,152.833 1206.33,132.167 1207,111.5C 1208.33,107.993 1210.83,106.327 1214.5,106.5C 1214.33,96.8276 1214.5,87.1609 1215,77.5C 1216.41,72.8711 1219.58,70.8711 1224.5,71.5C 1224.33,64.1591 1224.5,56.8258 1225,49.5C 1226.4,47.9297 1227.9,46.5964 1229.5,45.5 Z"/></g>
<g><path style="opacity:0.972" fill="#a51712" d="M 1067.5,189.5 C 1132.83,189.333 1198.17,189.5 1263.5,190C 1275.72,192.554 1283.89,199.721 1288,211.5C 1289.42,233.131 1289.92,254.798 1289.5,276.5C 1522.26,308.961 1720.43,408.628 1884,575.5C 2059.32,760.924 2153.32,981.924 2166,1238.5C 2172.56,1516.91 2082.89,1758.58 1897,1963.5C 1730.07,2139.72 1525.57,2244.22 1283.5,2277C 1020.56,2306.52 781.559,2245.19 566.5,2093C 377.561,1953.44 250.728,1770.27 186,1543.5C 130.737,1333.55 140.07,1126.55 214,922.5C 305.877,686.498 462.71,507.665 684.5,386C 796.552,326.734 915.552,289.568 1041.5,274.5C 1042.33,253.841 1042.83,233.175 1043,212.5C 1046.86,200.136 1055.03,192.469 1067.5,189.5 Z M 1079.5,223.5 C 1136.83,223.333 1194.17,223.5 1251.5,224C 1253.33,224.5 1254.5,225.667 1255,227.5C 1255.5,242.496 1255.67,257.496 1255.5,272.5C 1251.14,272.414 1246.81,272.08 1242.5,271.5C 1242.5,259.833 1242.5,248.167 1242.5,236.5C 1191.17,236.5 1139.83,236.5 1088.5,236.5C 1088.5,247.833 1088.5,259.167 1088.5,270.5C 1084.18,270.927 1079.84,271.261 1075.5,271.5C 1075.33,256.83 1075.5,242.163 1076,227.5C 1076.69,225.65 1077.86,224.316 1079.5,223.5 Z M 1081.5,300.5 C 1083.83,300.5 1086.17,300.5 1088.5,300.5C 1088.5,330.5 1088.5,360.5 1088.5,390.5C 1139.83,390.5 1191.17,390.5 1242.5,390.5C 1242.5,360.833 1242.5,331.167 1242.5,301.5C 1246.81,302.08 1251.14,302.414 1255.5,302.5C 1255.99,335.254 1255.49,367.92 1254,400.5C 1252.83,401.893 1251.33,402.727 1249.5,403C 1193.5,403.667 1137.5,403.667 1081.5,403C 1079.67,402.727 1078.17,401.893 1077,400.5C 1075.51,367.587 1075.01,334.587 1075.5,301.5C 1077.74,301.795 1079.74,301.461 1081.5,300.5 Z M 1041.5,304.5 C 1042.33,340.664 1042.83,376.998 1043,413.5C 1046.58,425.415 1054.41,432.915 1066.5,436C 1132.5,436.667 1198.5,436.667 1264.5,436C 1276.13,433.036 1283.97,425.869 1288,414.5C 1289.12,378.524 1289.95,342.524 1290.5,306.5C 1293.37,307.122 1296.2,307.789 1299,308.5C 1299.33,316.833 1299.67,325.167 1300,333.5C 1300.5,335.333 1301.67,336.5 1303.5,337C 1325.5,337.667 1347.5,337.667 1369.5,337C 1371.75,335.005 1372.75,332.505 1372.5,329.5C 1384.17,329.333 1395.84,329.5 1407.5,330C 1630.84,391.344 1811.34,514.511 1949,699.5C 2104.66,918.835 2163.33,1162.17 2125,1429.5C 2085.87,1659 1980.7,1851.5 1809.5,2007C 1598.46,2189.9 1352.79,2271.23 1072.5,2251C 816.629,2225.15 602.462,2117.98 430,1929.5C 266.561,1743.46 183.394,1525.8 180.5,1276.5C 183.757,1015.4 273.924,790.069 451,600.5C 582.054,464.835 739.554,373.502 923.5,326.5C 925.208,326.703 926.541,327.536 927.5,329C 937.828,329.5 948.161,329.666 958.5,329.5C 958.146,332.961 959.479,335.461 962.5,337C 984.5,337.667 1006.5,337.667 1028.5,337C 1029.7,336.097 1030.53,334.931 1031,333.5C 1031.17,324.482 1031.67,315.482 1032.5,306.5C 1035.64,305.911 1038.64,305.244 1041.5,304.5 Z"/></g>
<g><path style="opacity:0.983" fill="#a51712" d="M 962.5,222.5 C 984.503,222.333 1006.5,222.5 1028.5,223C 1029.7,223.903 1030.53,225.069 1031,226.5C 1031.67,240.167 1031.67,253.833 1031,267.5C 1030.5,269.333 1029.33,270.5 1027.5,271C 1005.83,271.667 984.167,271.667 962.5,271C 959.993,269.154 958.659,266.654 958.5,263.5C 948.161,263.666 937.828,263.5 927.5,263C 924.922,260.772 923.589,257.939 923.5,254.5C 916.492,254.666 909.492,254.5 902.5,254C 897.167,249.333 897.167,244.667 902.5,240C 909.492,239.5 916.492,239.334 923.5,239.5C 923.346,235.975 924.679,233.141 927.5,231C 937.828,230.5 948.161,230.334 958.5,230.5C 958.278,226.944 959.611,224.277 962.5,222.5 Z"/></g>
<g><path style="opacity:0.981" fill="#a51712" d="M 1303.5,222.5 C 1325.5,222.333 1347.5,222.5 1369.5,223C 1371.75,224.995 1372.75,227.495 1372.5,230.5C 1382.84,230.334 1393.17,230.5 1403.5,231C 1406.82,232.812 1408.15,235.645 1407.5,239.5C 1414.51,239.334 1421.51,239.5 1428.5,240C 1431.37,241.393 1432.7,243.726 1432.5,247C 1432.7,250.274 1431.37,252.607 1428.5,254C 1421.51,254.5 1414.51,254.666 1407.5,254.5C 1407.65,258.025 1406.32,260.859 1403.5,263C 1393.17,263.5 1382.84,263.666 1372.5,263.5C 1372.85,266.961 1371.52,269.461 1368.5,271C 1346.46,271.822 1324.46,271.655 1302.5,270.5C 1301.42,269.335 1300.58,268.002 1300,266.5C 1299.33,253.167 1299.33,239.833 1300,226.5C 1300.69,224.65 1301.86,223.316 1303.5,222.5 Z"/></g>
<g><path style="opacity:0.972" fill="#a51712" d="M 962.5,354.5 C 984.169,354.333 1005.84,354.5 1027.5,355C 1028.67,356.167 1029.83,357.333 1031,358.5C 1031.67,372.5 1031.67,386.5 1031,400.5C 1029.68,402.487 1027.85,403.654 1025.5,404C 1005.17,404.667 984.833,404.667 964.5,404C 960.177,402.866 958.177,400.033 958.5,395.5C 948.161,395.666 937.828,395.5 927.5,395C 924.698,392.895 923.365,390.061 923.5,386.5C 916.492,386.666 909.492,386.5 902.5,386C 898.788,383.487 897.622,379.987 899,375.5C 900.214,373.951 901.714,372.785 903.5,372C 910.158,371.5 916.825,371.334 923.5,371.5C 923.411,367.567 925.078,364.734 928.5,363C 938.494,362.5 948.494,362.334 958.5,362.5C 958.776,359.281 960.109,356.615 962.5,354.5 Z"/></g>
<g><path style="opacity:0.972" fill="#a51712" d="M 1303.5,354.5 C 1325.17,354.333 1346.84,354.5 1368.5,355C 1371.4,356.715 1372.73,359.215 1372.5,362.5C 1382.51,362.334 1392.51,362.5 1402.5,363C 1406.09,364.674 1407.76,367.507 1407.5,371.5C 1414.17,371.334 1420.84,371.5 1427.5,372C 1432.22,374.435 1433.72,378.269 1432,383.5C 1431.1,384.701 1429.93,385.535 1428.5,386C 1421.51,386.5 1414.51,386.666 1407.5,386.5C 1407.93,389.862 1406.93,392.695 1404.5,395C 1393.84,395.5 1383.17,395.667 1372.5,395.5C 1372.82,400.033 1370.82,402.866 1366.5,404C 1345.1,404.966 1323.77,404.633 1302.5,403C 1301.3,402.097 1300.47,400.931 1300,399.5C 1299.33,386.167 1299.33,372.833 1300,359.5C 1301,357.677 1302.16,356.01 1303.5,354.5 Z"/></g>
<g><path style="opacity:0.972" fill="#a51712" d="M 1078.5,447.5 C 1092.5,447.333 1106.5,447.5 1120.5,448C 1122.05,449.214 1123.22,450.714 1124,452.5C 1124.67,473.5 1124.67,494.5 1124,515.5C 1122.54,517.99 1120.38,519.657 1117.5,520.5C 1116.67,530.149 1116.17,539.816 1116,549.5C 1114.3,553.875 1111.13,555.542 1106.5,554.5C 1106.67,561.841 1106.5,569.174 1106,576.5C 1103.02,580.696 1099.19,581.529 1094.5,579C 1093.87,578.25 1093.37,577.416 1093,576.5C 1092.5,569.174 1092.33,561.841 1092.5,554.5C 1089.4,554.846 1086.56,554.179 1084,552.5C 1082.9,541.889 1082.07,531.222 1081.5,520.5C 1078.31,520.139 1076.14,518.472 1075,515.5C 1074.33,494.167 1074.33,472.833 1075,451.5C 1075.69,449.65 1076.86,448.316 1078.5,447.5 Z"/></g>
<g><path style="opacity:0.97" fill="#a51712" d="M 1144.5,447.5 C 1158.5,447.333 1172.5,447.5 1186.5,448C 1188.33,448.5 1189.5,449.667 1190,451.5C 1190.67,472.833 1190.67,494.167 1190,515.5C 1188.86,518.472 1186.69,520.139 1183.5,520.5C 1182.67,530.483 1182.17,540.483 1182,550.5C 1180.15,553.841 1177.32,555.174 1173.5,554.5C 1173.67,561.175 1173.5,567.842 1173,574.5C 1170.57,580.448 1166.4,581.948 1160.5,579C 1159.87,578.25 1159.37,577.416 1159,576.5C 1158.5,569.174 1158.33,561.841 1158.5,554.5C 1153.87,555.542 1150.7,553.875 1149,549.5C 1148.83,539.816 1148.33,530.149 1147.5,520.5C 1144.08,519.73 1141.91,517.73 1141,514.5C 1140.33,493.833 1140.33,473.167 1141,452.5C 1141.7,450.416 1142.86,448.749 1144.5,447.5 Z"/></g>
<g><path style="opacity:0.97" fill="#a51712" d="M 1210.5,447.5 C 1224.84,447.333 1239.17,447.5 1253.5,448C 1254.7,448.903 1255.53,450.069 1256,451.5C 1256.67,473.167 1256.67,494.833 1256,516.5C 1254.35,518.662 1252.19,519.995 1249.5,520.5C 1248.67,530.483 1248.17,540.483 1248,550.5C 1246.32,554.051 1243.49,555.384 1239.5,554.5C 1239.67,561.175 1239.5,567.842 1239,574.5C 1237.31,579.599 1233.81,581.432 1228.5,580C 1227,579.167 1225.83,578 1225,576.5C 1224.5,569.174 1224.33,561.841 1224.5,554.5C 1221.03,555.125 1218.2,554.125 1216,551.5C 1214.74,541.239 1214.07,530.906 1214,520.5C 1210.46,519.9 1208.13,517.9 1207,514.5C 1206.33,493.833 1206.33,473.167 1207,452.5C 1208,450.677 1209.16,449.01 1210.5,447.5 Z"/></g>
<g><path style="opacity:0.993" fill="#fe683b" d="M 1158.5,914.5 C 1232.2,910.2 1300.53,927.033 1363.5,965C 1380.97,976.793 1396.97,990.46 1411.5,1006C 1376.29,1041.71 1340.62,1076.88 1304.5,1111.5C 1280.91,1086.86 1252.91,1069.03 1220.5,1058C 1198.11,1052.36 1175.44,1051.03 1152.5,1054C 1134.96,1056.01 1120.8,1063.85 1110,1077.5C 1099.84,1100.35 1104.34,1119.85 1123.5,1136C 1138.34,1146.42 1154.34,1154.75 1171.5,1161C 1199.5,1171 1227.5,1181 1255.5,1191C 1291.53,1203.68 1324.2,1222.01 1353.5,1246C 1394.21,1284.74 1413.87,1332.4 1412.5,1389C 1411.74,1476.9 1371.08,1537.9 1290.5,1572C 1254.42,1585.68 1217.09,1593.35 1178.5,1595C 1128.28,1598.44 1078.95,1593.44 1030.5,1580C 976.927,1562.56 931.261,1533.06 893.5,1491.5C 928.124,1455.38 963.291,1419.71 999,1384.5C 1025.73,1413.56 1057.56,1435.06 1094.5,1449C 1133.7,1461.58 1173.04,1462.24 1212.5,1451C 1242.43,1438.97 1252.93,1417.47 1244,1386.5C 1239.05,1374.88 1231.21,1365.71 1220.5,1359C 1209.6,1351.38 1197.93,1345.05 1185.5,1340C 1154.47,1327.88 1123.14,1316.55 1091.5,1306C 1057.05,1293.45 1025.72,1275.79 997.5,1253C 963.092,1223.02 943.926,1185.19 940,1139.5C 931.717,1041.84 972.217,973.677 1061.5,935C 1092.92,923.217 1125.26,916.383 1158.5,914.5 Z"/></g>
</svg>
